<svg width="294" height="160" viewBox="0 0 294 160" fill="none" xmlns="http://www.w3.org/2000/svg">
<path d="M145.875 156.224C103.22 137.329 123.024 58.725 147.62 76.3075C174.793 58.2087 187.24 133.643 145.875 156.224Z" stroke="#F6F4F3" stroke-width="4.0252"/>
<path d="M137.821 7.29247C135.261 -2.90502 126.139 0.414939 132.045 11.3058C126.155 16.4414 125.427 22.7694 130.566 28.1866C131.983 28.1918 139.279 26.2663 146.354 26.0827C154.092 25.882 161.668 27.4266 163.52 27.5102C168.191 21.4784 165.43 15.3993 160.196 11.6102C165.727 2.23419 160.12 -3.5937 154.575 8.02406C153.339 6.56198 141.524 6.13839 137.821 7.29247Z" fill="#F6F4F3"/>
<path d="M161.469 65.5453C156.626 67.549 135.86 67.8254 131.966 66.1857C118.866 56.7355 122.273 34.5207 132.328 33.1326C141.603 31.5099 150.873 31.8347 159.802 32.6411C171.874 37.7083 172.829 58.7042 161.468 65.5454L161.469 65.5453Z" fill="#F6F4F3"/>
<path d="M125.701 43.5572C84.3372 23.936 53.2727 2.35296 9.05968 3.51484C-10.51 9.12466 26.3204 51.4583 44.8674 56.3294L127.119 56.6747" stroke="#F6F4F3" stroke-width="4.04379"/>
<path d="M168.299 43.9047C209.663 24.2835 240.727 2.70044 284.941 3.86232C304.51 9.47214 267.68 51.8058 249.133 56.6768L166.881 57.0222" stroke="#F6F4F3" stroke-width="4.04379"/>
<path d="M88.4673 56.8496C26.0949 75.5237 78.3657 100.532 103.823 96.113C118.86 88.4397 121.452 81.2101 136.852 59.2365" stroke="#F6F4F3" stroke-width="4.0252"/>
<path d="M207.801 57.197C270.173 75.8711 217.902 100.879 192.445 96.4604C177.407 88.7871 174.816 81.5575 159.416 59.5839" stroke="#F6F4F3" stroke-width="4.0252"/>
<path d="M13.7844 15.5013C30.5518 34.5761 28.3115 40.0129 50.7769 47.8155L107.312 47.1205C95.0761 39.8469 14.1887 -1.27728 13.7844 15.5013Z" fill="#F6F4F3"/>
<path d="M281.107 15.5013C264.34 34.5761 266.58 40.0129 244.115 47.8155L187.579 47.1205C199.815 39.8469 280.703 -1.27728 281.107 15.5013Z" fill="#F6F4F3"/>
<path d="M122.668 66.2311C122.668 66.2311 102.164 66.3345 86.0243 66.2312C47.5392 78.9787 81.2456 85.7665 97.8898 87.079C110.039 82.8273 114.246 74.8177 122.668 66.2311Z" fill="#F6F4F3"/>
<path d="M171.596 66.2311C171.596 66.2311 192.1 66.3345 208.239 66.2312C246.724 78.9787 213.018 85.7665 196.374 87.079C184.224 82.8273 180.017 74.8177 171.596 66.2311Z" fill="#F6F4F3"/>
<path d="M149.9 83.8937L134.196 115.513L146.061 117.25C146.061 117.25 143.596 128.342 140.826 140.183C137.957 152.454 159.323 107.174 159.323 107.174L147.806 105.784C147.806 105.784 153.163 77.3234 149.9 83.8937Z" fill="#F6F4F3"/>
</svg>
